<svg width="1600" height="980" viewBox="0 0 1600 980" fill="none" xmlns="http://www.w3.org/2000/svg">
  <rect width="1600" height="980" fill="#0B1020"/>
  <rect x="40" y="40" width="1520" height="900" rx="28" fill="#111833" stroke="#2A3566"/>
  <text x="80" y="110" fill="#F8FAFC" font-size="42" font-family="Arial, sans-serif" font-weight="700">Self-Hosted Discord Alternatives: Comparison Matrix</text>
  <text x="80" y="150" fill="#94A3B8" font-size="22" font-family="Arial, sans-serif">A practical snapshot of where each platform is strongest in 2026.</text>

  <g font-family="Arial, sans-serif" font-size="24" font-weight="700" fill="#E2E8F0">
    <text x="80" y="235">Platform</text>
    <text x="430" y="235">Voice</text>
    <text x="590" y="235">Persistent Chat</text>
    <text x="860" y="235">Admin Control</text>
    <text x="1090" y="235">Discord-like UX</text>
    <text x="1360" y="235">Best Use</text>
  </g>

  <g stroke="#24304F">
    <line x1="70" y1="260" x2="1530" y2="260"/>
    <line x1="70" y1="360" x2="1530" y2="360"/>
    <line x1="70" y1="460" x2="1530" y2="460"/>
    <line x1="70" y1="560" x2="1530" y2="560"/>
    <line x1="70" y1="660" x2="1530" y2="660"/>
    <line x1="70" y1="760" x2="1530" y2="760"/>
    <line x1="70" y1="860" x2="1530" y2="860"/>
  </g>

  <g font-family="Arial, sans-serif" font-size="28" fill="#F8FAFC" font-weight="600">
    <text x="80" y="320">Matrix + Element</text>
    <text x="80" y="420">TeamSpeak</text>
    <text x="80" y="520">Rocket.Chat</text>
    <text x="80" y="620">Mattermost</text>
    <text x="80" y="720">Zulip</text>
    <text x="80" y="820">Fluxer / Stoat</text>
  </g>

  <g font-family="Arial, sans-serif" font-size="22" fill="#CBD5E1">
    <text x="1360" y="320">Sovereignty</text>
    <text x="1360" y="420">Gaming voice</text>
    <text x="1360" y="520">Enterprise admin</text>
    <text x="1360" y="620">Business workflows</text>
    <text x="1360" y="720">Structured async</text>
    <text x="1360" y="820">Early Discord clone</text>
  </g>

  <g>
    <rect x="430" y="286" width="90" height="36" rx="18" fill="#22C55E"/><text x="460" y="311" fill="#08110A" font-size="18" font-family="Arial, sans-serif" font-weight="700">Good</text>
    <rect x="590" y="286" width="120" height="36" rx="18" fill="#22C55E"/><text x="620" y="311" fill="#08110A" font-size="18" font-family="Arial, sans-serif" font-weight="700">Strong</text>
    <rect x="860" y="286" width="120" height="36" rx="18" fill="#22C55E"/><text x="890" y="311" fill="#08110A" font-size="18" font-family="Arial, sans-serif" font-weight="700">Strong</text>
    <rect x="1090" y="286" width="110" height="36" rx="18" fill="#F59E0B"/><text x="1118" y="311" fill="#1A1202" font-size="18" font-family="Arial, sans-serif" font-weight="700">Medium</text>

    <rect x="430" y="386" width="120" height="36" rx="18" fill="#22C55E"/><text x="460" y="411" fill="#08110A" font-size="18" font-family="Arial, sans-serif" font-weight="700">Strong</text>
    <rect x="590" y="386" width="90" height="36" rx="18" fill="#EF4444"/><text x="614" y="411" fill="#1A0505" font-size="18" font-family="Arial, sans-serif" font-weight="700">Weak</text>
    <rect x="860" y="386" width="90" height="36" rx="18" fill="#F59E0B"/><text x="888" y="411" fill="#1A1202" font-size="18" font-family="Arial, sans-serif" font-weight="700">Okay</text>
    <rect x="1090" y="386" width="110" height="36" rx="18" fill="#F59E0B"/><text x="1118" y="411" fill="#1A1202" font-size="18" font-family="Arial, sans-serif" font-weight="700">Medium</text>

    <rect x="430" y="486" width="90" height="36" rx="18" fill="#F59E0B"/><text x="458" y="511" fill="#1A1202" font-size="18" font-family="Arial, sans-serif" font-weight="700">Okay</text>
    <rect x="590" y="486" width="120" height="36" rx="18" fill="#22C55E"/><text x="620" y="511" fill="#08110A" font-size="18" font-family="Arial, sans-serif" font-weight="700">Strong</text>
    <rect x="860" y="486" width="120" height="36" rx="18" fill="#22C55E"/><text x="890" y="511" fill="#08110A" font-size="18" font-family="Arial, sans-serif" font-weight="700">Strong</text>
    <rect x="1090" y="486" width="90" height="36" rx="18" fill="#EF4444"/><text x="1114" y="511" fill="#1A0505" font-size="18" font-family="Arial, sans-serif" font-weight="700">Weak</text>

    <rect x="430" y="586" width="90" height="36" rx="18" fill="#F59E0B"/><text x="458" y="611" fill="#1A1202" font-size="18" font-family="Arial, sans-serif" font-weight="700">Okay</text>
    <rect x="590" y="586" width="120" height="36" rx="18" fill="#22C55E"/><text x="620" y="611" fill="#08110A" font-size="18" font-family="Arial, sans-serif" font-weight="700">Strong</text>
    <rect x="860" y="586" width="120" height="36" rx="18" fill="#22C55E"/><text x="890" y="611" fill="#08110A" font-size="18" font-family="Arial, sans-serif" font-weight="700">Strong</text>
    <rect x="1090" y="586" width="90" height="36" rx="18" fill="#EF4444"/><text x="1114" y="611" fill="#1A0505" font-size="18" font-family="Arial, sans-serif" font-weight="700">Weak</text>

    <rect x="430" y="686" width="90" height="36" rx="18" fill="#F59E0B"/><text x="458" y="711" fill="#1A1202" font-size="18" font-family="Arial, sans-serif" font-weight="700">Okay</text>
    <rect x="590" y="686" width="120" height="36" rx="18" fill="#22C55E"/><text x="620" y="711" fill="#08110A" font-size="18" font-family="Arial, sans-serif" font-weight="700">Strong</text>
    <rect x="860" y="686" width="120" height="36" rx="18" fill="#22C55E"/><text x="890" y="711" fill="#08110A" font-size="18" font-family="Arial, sans-serif" font-weight="700">Strong</text>
    <rect x="1090" y="686" width="90" height="36" rx="18" fill="#F59E0B"/><text x="1118" y="711" fill="#1A1202" font-size="18" font-family="Arial, sans-serif" font-weight="700">Low</text>

    <rect x="430" y="786" width="90" height="36" rx="18" fill="#F59E0B"/><text x="458" y="811" fill="#1A1202" font-size="18" font-family="Arial, sans-serif" font-weight="700">Okay</text>
    <rect x="590" y="786" width="90" height="36" rx="18" fill="#F59E0B"/><text x="618" y="811" fill="#1A1202" font-size="18" font-family="Arial, sans-serif" font-weight="700">Okay</text>
    <rect x="860" y="786" width="90" height="36" rx="18" fill="#F59E0B"/><text x="888" y="811" fill="#1A1202" font-size="18" font-family="Arial, sans-serif" font-weight="700">Okay</text>
    <rect x="1090" y="786" width="120" height="36" rx="18" fill="#22C55E"/><text x="1120" y="811" fill="#08110A" font-size="18" font-family="Arial, sans-serif" font-weight="700">Strong</text>
  </g>

  <text x="80" y="910" fill="#64748B" font-size="18" font-family="Arial, sans-serif">Rule of thumb: choose Matrix for ownership, TeamSpeak for voice, Zulip for structure, and the Discord-clone newcomers only if you can tolerate early-stage rough edges.</text>
</svg>
